<svg xmlns="http://www.w3.org/2000/svg" viewBox="0 0 375 812" width="375" height="812">
  <!-- Background -->
  <rect width="375" height="812" fill="#f8fafc"/>

  <!-- Status Bar -->
  <rect width="375" height="44" fill="#2563eb"/>
  <text x="187" y="28" font-family="system-ui, sans-serif" font-size="14" fill="white" text-anchor="middle">9:41</text>

  <!-- Header -->
  <rect y="44" width="375" height="60" fill="#2563eb"/>
  <text x="20" y="82" font-family="system-ui, sans-serif" font-size="22" font-weight="bold" fill="white">Gear Guru</text>
  <circle cx="340" cy="74" r="18" fill="#1d4ed8"/>
  <text x="340" y="79" font-family="system-ui, sans-serif" font-size="12" fill="white" text-anchor="middle">JD</text>

  <!-- Family Members Section -->
  <text x="20" y="130" font-family="system-ui, sans-serif" font-size="16" font-weight="600" fill="#1e293b">Family Members</text>

  <!-- Member Card 1 -->
  <rect x="16" y="145" width="343" height="80" rx="12" fill="white" stroke="#e2e8f0" stroke-width="1"/>
  <circle cx="56" cy="185" r="24" fill="#3b82f6"/>
  <text x="56" y="191" font-family="system-ui, sans-serif" font-size="18" font-weight="bold" fill="white" text-anchor="middle">J</text>
  <text x="96" y="175" font-family="system-ui, sans-serif" font-size="16" font-weight="600" fill="#1e293b">John</text>
  <text x="96" y="195" font-family="system-ui, sans-serif" font-size="13" fill="#64748b">Age: 42 | 180cm | 82kg</text>
  <rect x="280" y="167" width="60" height="32" rx="6" fill="#2563eb"/>
  <text x="310" y="188" font-family="system-ui, sans-serif" font-size="12" fill="white" text-anchor="middle">View</text>

  <!-- Member Card 2 -->
  <rect x="16" y="235" width="343" height="80" rx="12" fill="white" stroke="#e2e8f0" stroke-width="1"/>
  <circle cx="56" cy="275" r="24" fill="#ec4899"/>
  <text x="56" y="281" font-family="system-ui, sans-serif" font-size="18" font-weight="bold" fill="white" text-anchor="middle">S</text>
  <text x="96" y="265" font-family="system-ui, sans-serif" font-size="16" font-weight="600" fill="#1e293b">Sarah</text>
  <text x="96" y="285" font-family="system-ui, sans-serif" font-size="13" fill="#64748b">Age: 39 | 165cm | 62kg</text>
  <rect x="280" y="257" width="60" height="32" rx="6" fill="#2563eb"/>
  <text x="310" y="278" font-family="system-ui, sans-serif" font-size="12" fill="white" text-anchor="middle">View</text>

  <!-- Member Card 3 -->
  <rect x="16" y="325" width="343" height="80" rx="12" fill="white" stroke="#e2e8f0" stroke-width="1"/>
  <circle cx="56" cy="365" r="24" fill="#22c55e"/>
  <text x="56" y="371" font-family="system-ui, sans-serif" font-size="18" font-weight="bold" fill="white" text-anchor="middle">E</text>
  <text x="96" y="355" font-family="system-ui, sans-serif" font-size="16" font-weight="600" fill="#1e293b">Emma</text>
  <text x="96" y="375" font-family="system-ui, sans-serif" font-size="13" fill="#64748b">Age: 14 | 158cm | 48kg</text>
  <rect x="280" y="347" width="60" height="32" rx="6" fill="#2563eb"/>
  <text x="310" y="368" font-family="system-ui, sans-serif" font-size="12" fill="white" text-anchor="middle">View</text>

  <!-- Member Card 4 -->
  <rect x="16" y="415" width="343" height="80" rx="12" fill="white" stroke="#e2e8f0" stroke-width="1"/>
  <circle cx="56" cy="455" r="24" fill="#f59e0b"/>
  <text x="56" y="461" font-family="system-ui, sans-serif" font-size="18" font-weight="bold" fill="white" text-anchor="middle">M</text>
  <text x="96" y="445" font-family="system-ui, sans-serif" font-size="16" font-weight="600" fill="#1e293b">Max</text>
  <text x="96" y="465" font-family="system-ui, sans-serif" font-size="13" fill="#64748b">Age: 10 | 140cm | 35kg</text>
  <rect x="280" y="437" width="60" height="32" rx="6" fill="#2563eb"/>
  <text x="310" y="458" font-family="system-ui, sans-serif" font-size="12" fill="white" text-anchor="middle">View</text>

  <!-- Add Member Button -->
  <rect x="16" y="510" width="343" height="48" rx="10" fill="#2563eb"/>
  <text x="187" y="540" font-family="system-ui, sans-serif" font-size="15" font-weight="600" fill="white" text-anchor="middle">+ Add Family Member</text>

  <!-- Gear Inventory Button -->
  <rect x="16" y="570" width="343" height="48" rx="10" fill="white" stroke="#2563eb" stroke-width="2"/>
  <text x="187" y="600" font-family="system-ui, sans-serif" font-size="15" font-weight="600" fill="#2563eb" text-anchor="middle">Family Gear Inventory</text>

  <!-- Quick Tip Section -->
  <rect x="16" y="640" width="343" height="80" rx="12" fill="#fef3c7"/>
  <text x="32" y="668" font-family="system-ui, sans-serif" font-size="13" font-weight="600" fill="#92400e">Quick Tip</text>
  <text x="32" y="690" font-family="system-ui, sans-serif" font-size="12" fill="#78350f">Tap a family member to view their</text>
  <text x="32" y="706" font-family="system-ui, sans-serif" font-size="12" fill="#78350f">measurements and gear sizing.</text>

  <!-- Home Indicator -->
  <rect x="120" y="795" width="135" height="5" rx="2.5" fill="#1e293b"/>
</svg>
